<mxfile host="Electron" modified="2025-01-31T18:33:51.417Z" agent="Mozilla/5.0 (Windows NT 10.0; Win64; x64) AppleWebKit/537.36 (KHTML, like Gecko) draw.io/22.0.3 Chrome/114.0.5735.289 Electron/25.8.4 Safari/537.36" etag="7b_LjDpKFBgCoP7bOkfg" version="22.0.3" type="device">
  <diagram id="C5RBs43oDa-KdzZeNtuy" name="Page-1">
    <mxGraphModel dx="1688" dy="683" grid="1" gridSize="10" guides="1" tooltips="1" connect="1" arrows="1" fold="1" page="1" pageScale="1" pageWidth="827" pageHeight="1169" math="0" shadow="0">
      <root>
        <mxCell id="WIyWlLk6GJQsqaUBKTNV-0" />
        <mxCell id="WIyWlLk6GJQsqaUBKTNV-1" parent="WIyWlLk6GJQsqaUBKTNV-0" />
        <mxCell id="kTybR0mcb-FwpM33WK_V-19" value="" style="rounded=1;whiteSpace=wrap;html=1;fillStyle=auto;strokeColor=#FFFFFF;fillColor=#FF0055;fontStyle=1;dashed=1;" parent="WIyWlLk6GJQsqaUBKTNV-1" vertex="1">
          <mxGeometry x="150" y="380" width="455.63" height="230" as="geometry" />
        </mxCell>
        <mxCell id="WIyWlLk6GJQsqaUBKTNV-2" value="" style="rounded=0;html=1;jettySize=auto;orthogonalLoop=1;fontSize=11;endArrow=classic;endFill=1;endSize=8;strokeWidth=1;shadow=0;labelBackgroundColor=none;edgeStyle=orthogonalEdgeStyle;" parent="WIyWlLk6GJQsqaUBKTNV-1" source="WIyWlLk6GJQsqaUBKTNV-3" target="WIyWlLk6GJQsqaUBKTNV-6" edge="1">
          <mxGeometry relative="1" as="geometry" />
        </mxCell>
        <mxCell id="WIyWlLk6GJQsqaUBKTNV-3" value="App Start" style="rounded=1;whiteSpace=wrap;html=1;fontSize=12;glass=0;strokeWidth=1;shadow=0;" parent="WIyWlLk6GJQsqaUBKTNV-1" vertex="1">
          <mxGeometry x="160" y="80" width="120" height="40" as="geometry" />
        </mxCell>
        <mxCell id="WIyWlLk6GJQsqaUBKTNV-4" value="Nein" style="rounded=0;html=1;jettySize=auto;orthogonalLoop=1;fontSize=11;endArrow=classic;endFill=1;endSize=8;strokeWidth=1;shadow=0;labelBackgroundColor=none;edgeStyle=orthogonalEdgeStyle;exitX=0;exitY=0.5;exitDx=0;exitDy=0;entryX=0.5;entryY=0;entryDx=0;entryDy=0;" parent="WIyWlLk6GJQsqaUBKTNV-1" source="WIyWlLk6GJQsqaUBKTNV-6" target="kTybR0mcb-FwpM33WK_V-2" edge="1">
          <mxGeometry x="-0.1351" y="10" relative="1" as="geometry">
            <mxPoint as="offset" />
            <mxPoint x="220" y="290" as="targetPoint" />
          </mxGeometry>
        </mxCell>
        <mxCell id="WIyWlLk6GJQsqaUBKTNV-5" value="Ja" style="edgeStyle=orthogonalEdgeStyle;rounded=0;html=1;jettySize=auto;orthogonalLoop=1;fontSize=11;endArrow=classic;endFill=1;endSize=8;strokeWidth=1;shadow=0;labelBackgroundColor=none;entryX=0.5;entryY=0;entryDx=0;entryDy=0;" parent="WIyWlLk6GJQsqaUBKTNV-1" source="WIyWlLk6GJQsqaUBKTNV-6" target="kTybR0mcb-FwpM33WK_V-1" edge="1">
          <mxGeometry x="-0.4667" y="-10" relative="1" as="geometry">
            <mxPoint as="offset" />
            <mxPoint x="320" y="210" as="targetPoint" />
          </mxGeometry>
        </mxCell>
        <mxCell id="WIyWlLk6GJQsqaUBKTNV-6" value="Benutzer angemeldet?" style="rhombus;whiteSpace=wrap;html=1;shadow=0;fontFamily=Helvetica;fontSize=12;align=center;strokeWidth=1;spacing=6;spacingTop=-4;rounded=1;" parent="WIyWlLk6GJQsqaUBKTNV-1" vertex="1">
          <mxGeometry x="170" y="170" width="100" height="80" as="geometry" />
        </mxCell>
        <mxCell id="l8YGJRBtLPIlhQpaiifW-43" style="edgeStyle=orthogonalEdgeStyle;rounded=0;orthogonalLoop=1;jettySize=auto;html=1;entryX=0.5;entryY=0;entryDx=0;entryDy=0;endArrow=none;endFill=0;" edge="1" parent="WIyWlLk6GJQsqaUBKTNV-1" source="kTybR0mcb-FwpM33WK_V-1" target="kTybR0mcb-FwpM33WK_V-5">
          <mxGeometry relative="1" as="geometry" />
        </mxCell>
        <mxCell id="l8YGJRBtLPIlhQpaiifW-44" style="edgeStyle=orthogonalEdgeStyle;rounded=0;orthogonalLoop=1;jettySize=auto;html=1;entryX=0.5;entryY=0;entryDx=0;entryDy=0;endArrow=none;endFill=0;" edge="1" parent="WIyWlLk6GJQsqaUBKTNV-1" source="kTybR0mcb-FwpM33WK_V-1" target="kTybR0mcb-FwpM33WK_V-6">
          <mxGeometry relative="1" as="geometry">
            <Array as="points">
              <mxPoint x="340" y="355" />
              <mxPoint x="339" y="355" />
            </Array>
          </mxGeometry>
        </mxCell>
        <mxCell id="l8YGJRBtLPIlhQpaiifW-45" style="edgeStyle=orthogonalEdgeStyle;rounded=0;orthogonalLoop=1;jettySize=auto;html=1;entryX=0.5;entryY=0;entryDx=0;entryDy=0;endArrow=none;endFill=0;" edge="1" parent="WIyWlLk6GJQsqaUBKTNV-1" source="kTybR0mcb-FwpM33WK_V-1" target="kTybR0mcb-FwpM33WK_V-8">
          <mxGeometry relative="1" as="geometry">
            <Array as="points">
              <mxPoint x="450" y="310" />
              <mxPoint x="450" y="355" />
              <mxPoint x="449" y="355" />
            </Array>
          </mxGeometry>
        </mxCell>
        <mxCell id="l8YGJRBtLPIlhQpaiifW-46" style="edgeStyle=orthogonalEdgeStyle;rounded=0;orthogonalLoop=1;jettySize=auto;html=1;entryX=0.5;entryY=0;entryDx=0;entryDy=0;endArrow=none;endFill=0;" edge="1" parent="WIyWlLk6GJQsqaUBKTNV-1" source="kTybR0mcb-FwpM33WK_V-1" target="kTybR0mcb-FwpM33WK_V-10">
          <mxGeometry relative="1" as="geometry" />
        </mxCell>
        <mxCell id="kTybR0mcb-FwpM33WK_V-1" value="Tabs" style="rounded=1;whiteSpace=wrap;html=1;" parent="WIyWlLk6GJQsqaUBKTNV-1" vertex="1">
          <mxGeometry x="340" y="300" width="110" height="20" as="geometry" />
        </mxCell>
        <mxCell id="l8YGJRBtLPIlhQpaiifW-41" style="edgeStyle=orthogonalEdgeStyle;rounded=0;orthogonalLoop=1;jettySize=auto;html=1;entryX=0.5;entryY=0;entryDx=0;entryDy=0;endArrow=none;endFill=0;" edge="1" parent="WIyWlLk6GJQsqaUBKTNV-1" source="kTybR0mcb-FwpM33WK_V-2" target="kTybR0mcb-FwpM33WK_V-21">
          <mxGeometry relative="1" as="geometry" />
        </mxCell>
        <mxCell id="kTybR0mcb-FwpM33WK_V-2" value="Authentifizierung" style="rounded=1;whiteSpace=wrap;html=1;" parent="WIyWlLk6GJQsqaUBKTNV-1" vertex="1">
          <mxGeometry x="12.5" y="300" width="105" height="20" as="geometry" />
        </mxCell>
        <mxCell id="kTybR0mcb-FwpM33WK_V-20" value="Tabs" style="text;html=1;strokeColor=none;fillColor=none;align=center;verticalAlign=middle;whiteSpace=wrap;rounded=0;fontColor=#FF0055;" parent="WIyWlLk6GJQsqaUBKTNV-1" vertex="1">
          <mxGeometry x="340" y="610" width="90" height="37.5" as="geometry" />
        </mxCell>
        <mxCell id="l8YGJRBtLPIlhQpaiifW-38" style="edgeStyle=orthogonalEdgeStyle;rounded=0;orthogonalLoop=1;jettySize=auto;html=1;entryX=0.5;entryY=0;entryDx=0;entryDy=0;endArrow=none;endFill=0;" edge="1" parent="WIyWlLk6GJQsqaUBKTNV-1" source="kTybR0mcb-FwpM33WK_V-5" target="l8YGJRBtLPIlhQpaiifW-1">
          <mxGeometry relative="1" as="geometry" />
        </mxCell>
        <mxCell id="kTybR0mcb-FwpM33WK_V-5" value="Verbindungen" style="rounded=1;whiteSpace=wrap;html=1;" parent="WIyWlLk6GJQsqaUBKTNV-1" vertex="1">
          <mxGeometry x="179.37" y="390" width="80" height="20" as="geometry" />
        </mxCell>
        <mxCell id="l8YGJRBtLPIlhQpaiifW-39" style="edgeStyle=orthogonalEdgeStyle;rounded=0;orthogonalLoop=1;jettySize=auto;html=1;entryX=0.5;entryY=0;entryDx=0;entryDy=0;endArrow=none;endFill=0;" edge="1" parent="WIyWlLk6GJQsqaUBKTNV-1" source="kTybR0mcb-FwpM33WK_V-6" target="l8YGJRBtLPIlhQpaiifW-13">
          <mxGeometry relative="1" as="geometry" />
        </mxCell>
        <mxCell id="kTybR0mcb-FwpM33WK_V-6" value="Adapter" style="rounded=1;whiteSpace=wrap;html=1;" parent="WIyWlLk6GJQsqaUBKTNV-1" vertex="1">
          <mxGeometry x="309.37" y="390" width="60" height="20" as="geometry" />
        </mxCell>
        <mxCell id="l8YGJRBtLPIlhQpaiifW-42" style="edgeStyle=orthogonalEdgeStyle;rounded=0;orthogonalLoop=1;jettySize=auto;html=1;entryX=0.5;entryY=0;entryDx=0;entryDy=0;endArrow=none;endFill=0;" edge="1" parent="WIyWlLk6GJQsqaUBKTNV-1" source="kTybR0mcb-FwpM33WK_V-8" target="l8YGJRBtLPIlhQpaiifW-19">
          <mxGeometry relative="1" as="geometry" />
        </mxCell>
        <mxCell id="kTybR0mcb-FwpM33WK_V-8" value="Musik" style="rounded=1;whiteSpace=wrap;html=1;" parent="WIyWlLk6GJQsqaUBKTNV-1" vertex="1">
          <mxGeometry x="419.37" y="390" width="60" height="20" as="geometry" />
        </mxCell>
        <mxCell id="kTybR0mcb-FwpM33WK_V-10" value="Profil" style="rounded=1;whiteSpace=wrap;html=1;" parent="WIyWlLk6GJQsqaUBKTNV-1" vertex="1">
          <mxGeometry x="529.37" y="390" width="60" height="20" as="geometry" />
        </mxCell>
        <mxCell id="l8YGJRBtLPIlhQpaiifW-26" value="" style="group" vertex="1" connectable="0" parent="WIyWlLk6GJQsqaUBKTNV-1">
          <mxGeometry x="404.37" y="435" width="90" height="171" as="geometry" />
        </mxCell>
        <mxCell id="l8YGJRBtLPIlhQpaiifW-19" value="" style="rounded=1;whiteSpace=wrap;html=1;dashed=1;fillColor=#0AF7FF;container=0;" vertex="1" parent="l8YGJRBtLPIlhQpaiifW-26">
          <mxGeometry width="90" height="151" as="geometry" />
        </mxCell>
        <mxCell id="l8YGJRBtLPIlhQpaiifW-20" value="Startseite Musik" style="rounded=1;whiteSpace=wrap;html=1;container=0;" vertex="1" parent="l8YGJRBtLPIlhQpaiifW-26">
          <mxGeometry x="13.129999999999995" y="11" width="63.75" height="40" as="geometry" />
        </mxCell>
        <mxCell id="l8YGJRBtLPIlhQpaiifW-21" value="Stationen filtern" style="rounded=1;whiteSpace=wrap;html=1;container=0;" vertex="1" parent="l8YGJRBtLPIlhQpaiifW-26">
          <mxGeometry x="13.129999999999995" y="55" width="63.75" height="40" as="geometry" />
        </mxCell>
        <mxCell id="l8YGJRBtLPIlhQpaiifW-22" value="Stationen auswÃ¤hlen" style="rounded=1;whiteSpace=wrap;html=1;" vertex="1" parent="l8YGJRBtLPIlhQpaiifW-26">
          <mxGeometry x="13.129999999999995" y="101" width="63.75" height="40" as="geometry" />
        </mxCell>
        <mxCell id="l8YGJRBtLPIlhQpaiifW-23" value="Stack" style="text;html=1;strokeColor=none;fillColor=none;align=center;verticalAlign=middle;whiteSpace=wrap;rounded=0;fontColor=#0AF7FF;" vertex="1" parent="l8YGJRBtLPIlhQpaiifW-26">
          <mxGeometry x="31" y="151" width="29" height="20" as="geometry" />
        </mxCell>
        <mxCell id="l8YGJRBtLPIlhQpaiifW-31" value="" style="group" vertex="1" connectable="0" parent="WIyWlLk6GJQsqaUBKTNV-1">
          <mxGeometry x="293.12" y="435" width="92.5" height="120" as="geometry" />
        </mxCell>
        <mxCell id="l8YGJRBtLPIlhQpaiifW-13" value="" style="rounded=1;whiteSpace=wrap;html=1;dashed=1;fillColor=#0AF7FF;container=0;" vertex="1" parent="l8YGJRBtLPIlhQpaiifW-31">
          <mxGeometry width="92.5" height="100" as="geometry" />
        </mxCell>
        <mxCell id="l8YGJRBtLPIlhQpaiifW-14" value="Startseite Adapter" style="rounded=1;whiteSpace=wrap;html=1;container=0;" vertex="1" parent="l8YGJRBtLPIlhQpaiifW-31">
          <mxGeometry x="14.379999999999995" y="11" width="63.75" height="40" as="geometry" />
        </mxCell>
        <mxCell id="l8YGJRBtLPIlhQpaiifW-15" value="Adapter hinzufÃ¼gen" style="rounded=1;whiteSpace=wrap;html=1;container=0;" vertex="1" parent="l8YGJRBtLPIlhQpaiifW-31">
          <mxGeometry x="14.379999999999995" y="54" width="63.75" height="40" as="geometry" />
        </mxCell>
        <mxCell id="l8YGJRBtLPIlhQpaiifW-24" value="Stack" style="text;html=1;strokeColor=none;fillColor=none;align=center;verticalAlign=middle;whiteSpace=wrap;rounded=0;fontColor=#0AF7FF;" vertex="1" parent="l8YGJRBtLPIlhQpaiifW-31">
          <mxGeometry x="31.75999999999999" y="100" width="29" height="20" as="geometry" />
        </mxCell>
        <mxCell id="l8YGJRBtLPIlhQpaiifW-37" value="" style="group" vertex="1" connectable="0" parent="WIyWlLk6GJQsqaUBKTNV-1">
          <mxGeometry x="160.62" y="435" width="117.5" height="120" as="geometry" />
        </mxCell>
        <mxCell id="l8YGJRBtLPIlhQpaiifW-7" value="" style="group" vertex="1" connectable="0" parent="l8YGJRBtLPIlhQpaiifW-37">
          <mxGeometry width="117.5" height="100" as="geometry" />
        </mxCell>
        <mxCell id="l8YGJRBtLPIlhQpaiifW-1" value="" style="rounded=1;whiteSpace=wrap;html=1;dashed=1;fillColor=#0AF7FF;" vertex="1" parent="l8YGJRBtLPIlhQpaiifW-7">
          <mxGeometry width="117.5" height="100" as="geometry" />
        </mxCell>
        <mxCell id="l8YGJRBtLPIlhQpaiifW-5" value="Startseite Verbindungen" style="rounded=1;whiteSpace=wrap;html=1;" vertex="1" parent="l8YGJRBtLPIlhQpaiifW-7">
          <mxGeometry x="16.25" y="7.5" width="83.75" height="40" as="geometry" />
        </mxCell>
        <mxCell id="l8YGJRBtLPIlhQpaiifW-6" value="Verbindung hinzufÃ¼gen" style="rounded=1;whiteSpace=wrap;html=1;" vertex="1" parent="l8YGJRBtLPIlhQpaiifW-7">
          <mxGeometry x="16.25" y="54" width="83.75" height="40" as="geometry" />
        </mxCell>
        <mxCell id="l8YGJRBtLPIlhQpaiifW-25" value="Stack" style="text;html=1;strokeColor=none;fillColor=none;align=center;verticalAlign=middle;whiteSpace=wrap;rounded=0;fontColor=#0AF7FF;" vertex="1" parent="l8YGJRBtLPIlhQpaiifW-37">
          <mxGeometry x="44.25" y="100" width="29" height="20" as="geometry" />
        </mxCell>
        <mxCell id="l8YGJRBtLPIlhQpaiifW-40" value="" style="group" vertex="1" connectable="0" parent="WIyWlLk6GJQsqaUBKTNV-1">
          <mxGeometry x="15" y="340" width="100" height="100" as="geometry" />
        </mxCell>
        <mxCell id="kTybR0mcb-FwpM33WK_V-21" value="" style="rounded=1;whiteSpace=wrap;html=1;dashed=1;fillColor=#0AF7FF;" parent="l8YGJRBtLPIlhQpaiifW-40" vertex="1">
          <mxGeometry x="5" width="90" height="70" as="geometry" />
        </mxCell>
        <mxCell id="kTybR0mcb-FwpM33WK_V-22" value="Stack" style="text;html=1;strokeColor=none;fillColor=none;align=center;verticalAlign=middle;whiteSpace=wrap;rounded=0;fontColor=#0AF7FF;" parent="l8YGJRBtLPIlhQpaiifW-40" vertex="1">
          <mxGeometry y="70" width="100" height="30" as="geometry" />
        </mxCell>
        <mxCell id="kTybR0mcb-FwpM33WK_V-15" value="Anmelden" style="rounded=1;whiteSpace=wrap;html=1;" parent="l8YGJRBtLPIlhQpaiifW-40" vertex="1">
          <mxGeometry x="10" y="5" width="80" height="20" as="geometry" />
        </mxCell>
        <mxCell id="kTybR0mcb-FwpM33WK_V-16" value="Registrieren" style="rounded=1;whiteSpace=wrap;html=1;" parent="l8YGJRBtLPIlhQpaiifW-40" vertex="1">
          <mxGeometry x="10" y="35" width="80" height="20" as="geometry" />
        </mxCell>
      </root>
    </mxGraphModel>
  </diagram>
</mxfile>
